Coordinates
version=1
nRows=7
nColumns=38
inDegrees=yes

Units are S.I. units (second, meters, Newtons, ...)
Angles are in degrees.

endheader
time	pelvis_tilt	pelvis_list	pelvis_rotation	pelvis_tx	pelvis_ty	pelvis_tz	hip_flexion_r	hip_adduction_r	hip_rotation_r	knee_angle_r	ankle_angle_r	subtalar_angle_r	mtp_angle_r	hip_flexion_l	hip_adduction_l	hip_rotation_l	knee_angle_l	ankle_angle_l	subtalar_angle_l	mtp_angle_l	lumbar_extension	lumbar_bending	lumbar_rotation	arm_flex_r	arm_add_r	arm_rot_r	elbow_flex_r	pro_sup_r	wrist_flex_r	wrist_dev_r	arm_flex_l	arm_add_l	arm_rot_l	elbow_flex_l	pro_sup_l	wrist_flex_l	wrist_dev_l
      1.75000000	     -1.67629786	      2.90471364	     -0.21621892	     -1.01644453	      0.92597436	     -0.23575698	     28.86635612	     -1.51408555	     -2.82953806	    -44.94867823	     -1.90989196	    -13.11475216	     13.47432242	      0.20847355	      6.94668590	      6.61398236	    -15.57477905	     10.86586633	     -1.06770970	      2.91308126	     -6.13882505	     -1.01249324	     -6.74103643	     -8.11333903	    -17.25938323	      3.42305594	     24.48340497	     86.51662706	      0.00000000	      0.00000000	     -0.68104483	    -18.51841665	     14.07921169	     28.87198475	     86.51662706	      0.00000000	      0.00000000
      1.76000000	     -1.52096479	      2.81269513	     -0.07165067	     -1.00453383	      0.92545484	     -0.23510070	     28.95823771	     -1.57684731	     -3.26616188	    -41.55803660	     -1.79162642	    -12.76482251	     13.48668680	     -1.23404703	      6.73662020	      6.71545963	    -14.73096052	     11.13072722	     -0.83276613	      3.12349179	     -6.36992553	     -0.89919474	     -7.16272718	     -8.09939014	    -17.10520534	      3.65917668	     23.83040705	     86.51662706	      0.00000000	      0.00000000	     -0.19615849	    -18.68230066	     14.33603944	     29.39608244	     86.51662706	      0.00000000	      0.00000000
      1.77000000	     -1.34110816	      2.72910959	      0.04765844	     -0.99258561	      0.92483811	     -0.23432532	     28.91347279	     -1.62226510	     -3.68380502	    -38.03557916	     -1.61381657	    -12.10584659	     13.35484584	     -2.68187629	      6.52706410	      6.77916732	    -13.93760730	     11.34330387	     -0.59479094	      3.31699867	     -6.61710277	     -0.80343930	     -7.50970609	     -8.14745257	    -16.97569288	      3.76319884	     23.26940559	     86.51662706	      0.00000000	      0.00000000	      0.25832569	    -18.87862271	     14.35514768	     30.00172603	     86.51662706	      0.00000000	      0.00000000
      1.78000000	     -1.14704123	      2.65521778	      0.14985512	     -0.98057342	      0.92413160	     -0.23345048	     28.75445597	     -1.65418745	     -4.09873623	    -34.43246699	     -1.37946366	    -11.13416649	     13.08693842	     -4.12160541	      6.31798009	      6.81013974	    -13.20061092	     11.51261709	     -0.34714782	      3.49758892	     -6.87166954	     -0.72527002	     -7.79873069	     -8.24386690	    -16.86201070	      3.76118661	     22.78552504	     86.51662706	      0.00000000	      0.00000000	      0.68781191	    -19.08960224	     14.19783393	     30.65711995	     86.51662706	      0.00000000	      0.00000000
      1.79000000	     -0.95040856	      2.59245726	      0.24369860	     -0.96845046	      0.92333404	     -0.23250724	     28.51196257	     -1.67589632	     -4.53195450	    -30.81797719	     -1.09335246	     -9.85877214	     12.69852374	     -5.53523988	      6.10959417	      6.81583634	    -12.53065644	     11.64891462	     -0.08453112	      3.66987316	     -7.12118633	     -0.66412348	     -8.04844586	     -8.37222465	    -16.75477577	      3.68569058	     22.36002234	     86.51662706	      0.00000000	      0.00000000	      1.09827373	    -19.29611460	     13.93604401	     31.32441363	     86.51662706	      0.00000000	      0.00000000
      1.80000000	     -0.76198363	      2.54154448	      0.33602223	     -0.95618375	      0.92243368	     -0.23152715	     28.22157840	     -1.68871408	     -5.00392388	    -27.27178723	     -0.76110674	     -8.31019290	     12.21280373	     -6.90206531	      5.90247238	      6.80544969	    -11.94360071	     11.76092806	      0.19449670	      3.83908670	     -7.35154443	     -0.61847393	     -8.27479963	     -8.51657979	    -16.64669361	      3.56979000	     21.97386393	     86.51662706	      0.00000000	      0.00000000	      1.49455129	    -19.48330365	     13.63604908	     31.96822446	     86.51662706	      0.00000000	      0.00000000
      1.81000000	     -0.59105382	      2.50135190	      0.43090686	     -0.94378240	      0.92141319	     -0.23051881	     27.92012643	     -1.69200856	     -5.52828269	    -23.87952110	     -0.38848553	     -6.54481862	     11.65951045	     -8.20007094	      5.69737107	      6.78899837	    -11.46014520	     11.85409623	      0.48700412	      4.01220870	     -7.54983286	     -0.58570963	     -8.48913860	     -8.66326455	    -16.53369039	      3.44308367	     21.61041224	     86.51662706	      0.00000000	      0.00000000	      1.87911827	    -19.64316770	     13.34852965	     32.56130587	     86.51662706	      0.00000000	      0.00000000
